<svg xmlns="http://www.w3.org/2000/svg" xml:space="preserve" width="500.00131" height="500" viewBox="0 0 500.0013 500"><path d="M129.571 63.38h54.967v-6.192h-19.511c-.374-.75-1.125-3.75 19.136-3.563l.187-6.004c-11.819.188-24.388.938-27.201 5.816-3.753-4.128-13.695-6.942-27.203-6.379v6.002c14.258.19 19.324 1.315 19.698 4.128h-20.073v6.192M185.101 39.179v5.627h-55.718v-5.252h24.388v-1.876c0-1.877-.563-2.064-3.564-2.627-9.568-6.002-8.254-17.07-4.689-21.198 7.878-8.442 16.508-6.565 22.511-1.126 9.381 10.695.938 21.012-5.44 22.887-1.688.751-2.064.563-2.064 2.064v1.5zM165.03 22.482a7.694 7.694 0 1 0-15.388.002 7.694 7.694 0 0 0 15.388-.002M225.846 65.202c-7.325 0-13.264-5.941-13.264-13.267s5.939-13.265 13.264-13.265c7.327 0 13.266 5.939 13.266 13.265 0 7.326-5.939 13.267-13.266 13.267zm0-20.164a6.899 6.899 0 1 0 .002 13.797 6.899 6.899 0 0 0-.002-13.797M249.109 39.558c-8.499 0-15.388-6.888-15.388-15.386 0-8.499 6.889-15.388 15.388-15.388 8.498 0 15.389 6.889 15.389 15.388 0 8.498-6.891 15.386-15.389 15.386zm0-23.877a8.49 8.49 0 0 0-8.489 8.49 8.49 8.49 0 1 0 8.489-8.49M318.014 65.342c-6.887 0-12.469-5.582-12.469-12.468s5.582-12.47 12.469-12.47c6.886 0 12.469 5.584 12.469 12.47 0 6.886-5.583 12.468-12.469 12.468zm0-18.836a6.369 6.369 0 1 0 .001 12.737 6.369 6.369 0 0 0-.001-12.737M257.738 39.742h6.942v16.884h8.441v6.38c-6.753 0-11.255 1.686-14.257-1.877-1.313-1.313-1.313-6.004-1.313-6.004l.187-15.383M351.22 41.055h7.878v22.7h-7.878ZM314.449 37.866h43.149c.937-.188 1.689-1.127 1.5-3.002v-7.129c-.188-2.063 0-5.253-6.377-5.253h-30.768v-3.189h37.334v-6.378h-36.208c-3.94 0-8.442.188-8.63 7.13v8.44h36.582c2.251 0 1.877 3.19-.187 3.19h-36.395v6.191M434.701 63.942v-6.94h-36.768v6.94h-7.317V41.993c0-6.004 3.563-7.129 6.941-7.129h38.27c5.253 0 6.191 3.002 6.754 7.316v21.762zm.75-22.324h-37.332v9.38h37.332v-9.38M413.314 29.235V20.42h-22.511v-6.567h52.716v7.129h-22.701v8.253h-7.504" style="fill:#231f20;fill-opacity:1;fill-rule:nonzero;stroke:none;stroke-width:.1" transform="matrix(1.33333 0 0 -1.33333 -256.488 -49.398)"/><path d="M68.785 75.779c-20.926 0-37.89-16.964-37.89-37.89C30.895 16.964 47.859 0 68.785 0c20.926 0 37.889 16.964 37.889 37.89 0 20.925-16.963 37.889-37.89 37.889zm0-67.361c-16.277 0-29.472 13.195-29.472 29.471 0 16.277 13.195 29.472 29.472 29.472 16.276 0 29.471-13.195 29.471-29.472 0-16.276-13.195-29.471-29.471-29.471" style="fill:#f89c0e;fill-opacity:1;fill-rule:nonzero;stroke:none;stroke-width:.1" transform="matrix(6.59814 0 0 -6.59814 -203.849 500)"/><path d="M60.514 53.567h14.3c1.206-.172 1.38-1.033 1.38-2.239v-18.09c.17-5.513-1.207-16.195-16.54-13.439-.69-.172-.518 1.378-.518 2.24v5.17c2.24-.346 5.858-.863 7.064 1.205 2.585 1.722 1.723 9.13 1.55 15.678.173 2.412-1.033 1.894-1.721 1.894h-5.515v7.581" style="fill:#231f20;fill-opacity:1;fill-rule:nonzero;stroke:none;stroke-width:.1" transform="matrix(6.59814 0 0 -6.59814 -203.849 500)"/><path d="M732.871 307.374s.391 2.456 3.392 3.746c3 1.29 4.76 1.434 5.189 1.507.428.074 15.147-.798 15.147-.798s17.24 2.615 19.466 2.712c2.227.097 2.901-1.01 3.29-1.327.39-.32 2.457-2.559 2.342-6.863-.11-4.303-3.599-6.918-5.02-7.447-1.023-.38-6.712-1.311-20.369-.924-5.07.145-12.716 1.482-15.592 2.227-2.615.678-5.416 2.238-6.489 3.003-1.356.968-1.453 3.002-1.356 4.164M757.015 259.41s4.038.802 6.944.802c2.905 0 6.988-1.217 8.87-1.722 1.88-.508 6.738-2.693 7.698-3.682.961-.988 4.641-3.605 4.544-7.477-.096-3.874-3.172-4.116-5.799-4.238-2.626-.12-9.307 2.204-12.795 4.722-3.487 2.518-8.852 9.052-9.462 11.595" style="fill:#231f20;fill-opacity:1;fill-rule:nonzero;stroke:none;stroke-width:.193693" transform="matrix(1.33333 0 0 -1.33333 -256.488 -49.398)"/><path d="M718.925 278.13c.953-1.671 2.662-3.688 5.991-5.152 4.44-1.952 12.894-.469 15.606.405 2.714.87 7.372 1.088 7.372 1.088s1.828-1.379 1.441-2.831c-.709-2.664-1.84-7.072-5.034-10.363-2.541-2.617-6.78-5.716-9.042-6.47-2.26-.753-8.199-1.375-9.035-1.421-.841-.046-6.328 2.08-10.398 2.855-4.066.773-5.904-.68-6.673-1.852-.767-1.172-3.105-3.475 1.542-9.866 4.647-6.392 8.618-7.07 12.106-7.845 3.486-.775 10.554 2.905 12.784 4.261 2.225 1.356 9.549 6.925 9.549 6.925l.908-8.377s-3.002-24.793-2.905-26.73c.099-1.937-1.065-9.2-.097-12.588.969-3.388 5.908-6.975 7.556-7.169 1.644-.194 2.613.097 4.16 2.232 1.544 2.134 3.43 14.141 3.43 14.141s.253 14.424 0 19.412c-.253 4.99-1.295 12.735-1.878 16.803-.581 4.067-3.68 8.62-3.142 9.638.537 1.02 1.304 3.725 4.1 9.288 2.796 5.563 7.363 8.954 7.363 8.954s12.116 5.433 12.718 5.774c.606.337 1.43-.147 3.85 4.267 2.42 4.413-1.113 6.239-1.925 6.694-.633.353-2.527.804-5.187.419-2.66-.388-18.455-2.714-21.165-2.81-2.713-.096-11.817-1.454-15.883-.58-4.069.87-11.718.87-14.664-.626a7.687 7.687 0 0 1-4.023-5.268c-.15-.742-.006-2.187.575-3.208" style="fill:#231f20;fill-opacity:1;fill-rule:nonzero;stroke:none;stroke-width:.193693" transform="matrix(1.33333 0 0 -1.33333 -256.488 -49.398)"/><path d="M800.274 311.455s-.51 4.432.293 6.185c1.065 2.324 3.777 3.825 7.7 3.728 3.922-.096 7.03-1.06 8.576-2.299 1.544-1.235 2.576-2.905 2.594-3.765.015-.86.063-2.264-.227-4.395-.29-2.13-2.148-10.742-2.284-12.005-.137-1.261-.6-7.376-.587-8.7.014-1.328.909-10.646.922-11.047.012-.4 3.419-.273 4.936-.167 1.516.105 9.264 1.172 10.523 1.414 1.259.24 10.496 1.515 12.487 1.097 1.992-.42 2.91-.179 3.493-1.823.58-1.646.67-4.298-.73-6.628s-3.012-3.413-4.605-4.52c-1.59-1.105-4.976-2-7.279-2.593-2.3-.592-7.724-.98-9.128-1.127-1.405-.143-8.777-.378-8.777-.378s-1.731-.881-2.458-3.397c-.726-2.518-1.559-7.23-1.559-7.23s-.622-7.851-.67-8.953c-.046-1.104.244-7.4.486-8.222.242-.824 1.056-3.967 1.69-4.163.634-.196 9.4-.777 11.627-.922 2.227-.145 6.876.484 8.183.775 1.308.29 7.99 2.227 9.247 2.76 1.261.533 5.474 1.743 7.506 0 2.035-1.743 1.937-3.486 1.21-5.569-.726-2.082-3.823-6.488-6.487-8.619-2.663-2.13-6.453-5.567-10.2-6.415-3.745-.849-5.876.798-7.232 1.185-1.356.388-8.62 2.567-10.169 2.809-1.55.242-7.796 1.017-10.895 1.162-3.1.145-18.788-.145-18.788-.145l-15.738-.969s-6.593-.155-8.418.357c-1.315.37-2.187.805-2.429 1.774-.242.968.29 3.68.775 4.6.484.92 2.946 4.157 7.043 4.959 3.126.61 5.704.933 6.862 1.086 1.157.153 7.273.384 8.321.444 1.05.058 13.268.058 13.268.058s1.325.05 1.924 3.264c.594 3.215 1.37 7.96 1.466 11.399.097 3.438.726 11.427.242 14.09-.484 2.664-.79 4.215-.79 4.215s-8.895-.292-10.928-.197c-2.034.099-7.57-.217-9.573.45-2 .666-2.53.77-3.597 1.59-1.067.817-2.031 4.133 0 7.027 2.034 2.895 7.31 4.2 8.908 4.639 1.598.435 6.005.772 7.119.82 1.113.05 8.408-.27 8.408-.27s.963.238 1.338 1.757c.374 1.516.568 7.57.277 9.556-.29 1.984-1.5 11.765-1.985 13.266-.484 1.502-1.75 6.226-1.89 8.052" style="fill:#231f20;fill-opacity:1;fill-rule:nonzero;stroke:none;stroke-width:.193693" transform="matrix(1.33333 0 0 -1.33333 -256.488 -49.398)"/><path d="M92.346 0v17.684c-29.012 1.536-54.43 16.61-70.06 39.02l39.927 20.038c7.736-8.427 18.47-14.054 30.512-15.193l.01 44.92-39.272 21.008a47.422 47.422 0 0 1-3.766-18.58 47.41 47.41 0 0 1 3.78-18.616L14.367 70.47c-5.424 11.68-8.453 24.698-8.453 38.427 0 14.032 3.165 27.324 8.818 39.202L0 156.303l5.467 9.816 14.81-8.035C35.385 181.681 61.048 197.872 90.605 200l-.01-44.008c-13.27-1.86-24.785-9.196-32.185-19.65L98.176 114.8l38.191 21.164c-6.927 9.992-17.585 17.2-29.957 19.611l.016 44.207c28.78-2.866 53.625-19.094 68.25-42.388l15.43 8.724 5.468-9.816-15.5-8.824c5.469-11.72 8.526-24.794 8.526-38.583 0-13.586-2.967-26.479-8.286-38.064l-38.62 21.08a47.435 47.435 0 0 1 3.124 16.984 47.436 47.436 0 0 1-3.213 17.217l-37.96-19.783-.004-44.57c12.156 1.632 22.86 7.855 30.304 16.87l39.159-20.648c-15.263-22.693-40.442-38.16-69.329-40.2L103.755 0Zm0 29.225v19.818c-12.786 1.036-24.44 6.074-33.705 13.863L40.5 52.771c13.395-13.543 31.602-22.317 51.846-23.546Zm11.43.113c20.723 1.676 39.212 11.267 52.435 25.748l-18.578 9.36c-9.142-8.309-20.857-13.837-33.809-15.245Zm69.974 56.685a79.806 79.806 0 0 1 3.326 22.873c0 11.914-2.61 23.219-7.289 33.374l-17.387-9.565a59.846 59.846 0 0 0 4.907-23.809c0-4.578-.513-9.037-1.485-13.322zm-153.047.196 18.227 8.334a60.238 60.238 0 0 0-1.725 14.343 59.859 59.859 0 0 0 5.135 24.334l-17.625 9.01c-4.673-10.147-7.28-21.44-7.28-33.344 0-7.879 1.142-15.487 3.268-22.677zm126.16 56.527 17.647 9.158c-10.662 16.635-27.327 29.057-46.936 34.201l.008-20.685c11.99-4.313 22.212-12.33 29.281-22.674zm-99.095.174c7.276 10.563 17.847 18.681 30.23 22.873l-.01 20.582c-19.738-4.891-36.578-17.133-47.449-33.648Z" style="fill:#231f20;fill-opacity:1;fill-rule:nonzero;stroke:none;stroke-width:.258257" transform="translate(-303.103 -492.227)"/><path d="M-4.586 292.543C5.46 302.7 19.115 309.282 34.298 310.204V295.34A44.837 44.837 0 0 1 9.02 284.943zM82.197 290.808c-9.917 10.86-23.783 18.054-39.326 19.31l.036-14.896c9.714-1.056 18.5-5.203 25.357-11.434zM-16.425 225.442c-3.505 7.61-5.459 16.08-5.459 25.008 0 5.91.856 11.615 2.451 17.008l13.669-6.25a45.178 45.178 0 0 1-1.293-10.758 44.891 44.891 0 0 1 3.851-18.25zM-12.057 217.578c8.154-12.387 20.783-21.568 35.587-25.236l.008 15.435C14.25 210.921 6.322 217.01.865 224.932zM88.422 218.194c-7.997-12.476-20.495-21.793-35.202-25.65l.006 15.514a45.164 45.164 0 0 1 21.961 17.004zM92.379 225.42c3.509 7.617 5.467 16.095 5.467 25.03 0 5.961-.872 11.722-2.494 17.155l-13.446-7.163a45.147 45.147 0 0 0 1.113-9.992c0-6.344-1.311-12.381-3.679-17.857z" style="fill:none;stroke:#231f20;stroke-width:1.4527;stroke-linecap:butt;stroke-linejoin:miter;stroke-miterlimit:4;stroke-dasharray:none;stroke-opacity:1" transform="matrix(1.33333 0 0 -1.33333 -256.488 -49.398)"/><path d="M302.914 4.465c-1.334.005-2.99.325-4.701 1.558-3.422 2.47-4.455 7.864-4.713 10.834-.258 2.97.517 9.554.904 11.233.388 1.679 1.938 12.396 1.938 12.396l.199 4.475s-1.944 2.887-3.945 3.791c-1.06.478-5.23 1.873-7.807 2.676-1.596.496-5.97 1.032-7.172 1.261-2.453.468-6.262.841-10.13 1.006-3.198.135-7.237.349-10.53-.424-2.353-.555-3.615-.453-4.889-1.181-1.157-.659-3.44-1.66-6.214-2.436-3.512-.981-6.2-.903-8.782.582-1.201.69-3.809 2.454-5.68 4.2-2.583 2.412-3.875 4.984-4.52 6.841-1.034 2.97.84 6.52 1.28 7 .633.69 4.143 3.2 6.08 6.815.665 1.242 2.234 4.016 3.914 7.629 2.209 4.75 4.563 10.533 4.842 11.998.495 2.58 2.348 11.686 3.57 17.18.032.144 1.374 2.103 2.67 3.33 2.305 2.184 1.787 3.556 8.825 5.15 3.876.875 10.913-3.191 12.72-4.354 1.808-1.162 7.823-2.882 10.147-3.011 2.324-.127 6.383-.475 8.146-.555.938-.044 2.188.275 3.397.445 1.064.15 2.199-.058 2.85.446 3.029 2.352 2.19 4.482 2.19 4.482s-.386 24.02-.257 30.992c.132 7.102.517 17.173 2.324 24.533 1.397 5.692 2.39 9.363 4.448 11.282.922.862 4.009 2.02 4.572 1.898 1.265-.274 3.57-2.783 4.797-5.467.663-1.449 1.548-9.068 2.23-13.613.589-3.923.481-13.727.672-17.627.189-3.897.326-10.691.584-15.34.258-4.648 1.032-11.75 1.549-13.816.516-2.066.84-4.649 2.777-6.973 1.937-2.324 5.422-3.875 8.81-3.81 1.775.033 6.88.452 9.204 1.097 1.635.457 8.134 1.938 12.775 2.362 3.934.359 9.37-4.105 11.045-6.137 1.328-1.61 5.75-9.137 8.332-15.203 1.72-4.045 3.474-8.114 5.12-11.164.823-1.53 1.766-2.609 2.37-3.686 1.808-3.228 6.045-7.096 7.618-8.912.785-.906 1.853-2.647 2.984-3.926 1.134-1.273 2.264-2.798 2.36-3.185.273-1.088.21-6.317-.669-8.815-.19-.547-1.237-1.886-2.45-3.338-1.075-1.288-2.349-2.923-3.26-3.59-1.178-.865-3.009-1.82-5.075-2.828-1.332-.648-2.686-1.431-4.277-1.847-4.057-1.057-15.955 1.06-17.375 1.06s-21.693 2.58-24.795 3.07c-3.102.486-14.46 2.481-14.46 2.481s-1.873-1.807-1.94-7.502c-.008-.658.132-5.41.39-6.83.259-1.42 1.033-6.069 1.17-8.12.14-2.05-.137-6.473-.222-6.917-.086-.447-.174-2.137-3.237-6.135-3.063-4-9.075-6.98-9.928-7.031-.427-.026-1.44-.335-2.775-.33zM341.14 63.59c.87-.021 1.592-.02 2.011.012 1.68.126 7.555.322 8.46.386.903.062 4.49.932 4.73 1.5.24.566 1.07 3.013.558 4.018-.51 1.002-1.85 5.39-2.343 6.135-.494.74-4.948 8.877-5.594 9.654-.646.772-5.229 7.3-5.229 7.3s-5.424.25-8.523.315c-3.1.067-10.912-.064-12.01-.514-1.097-.454-4.103-1.012-4.568-1.25-.468-.237-1.267-2.27-1.672-2.9-.408-.63-.475-4.697-.54-7.021-.033-1.232.132-4.065.132-4.065s.77-4.2 1.226-5.62c.581-1.806 1.83-3.41 2.303-3.933.473-.519 4.053-1.718 4.91-2.119.858-.403 6.996-1.273 8.479-1.45 1.112-.135 5.058-.385 7.67-.448zm-48.616 5.469c1.429-.034 2.128.217 2.456.447.33.23 1.92 2.938 2.007 3.346.259 1.206.928 5.468.84 9.02-.064 2.582-.193 6.39-.515 8.327-.272 1.625-.636 3.724-.77 3.961-.134.235-4.591 1.592-6.205 1.85-1.614.26-8.974 1.484-11.363 1.484-2.39 0-6.807.56-7.535.572-.729.011-2.868-1.984-3.348-2.568-.48-.586-5.033-8.218-5.645-11.756-.58-3.355-1.097-5.873-1.097-6.715 0-.836 1.5-5.515 1.5-5.515s8.701-.55 10.767-.617c2.066-.065 9.167-.902 10.846-1.16 1.679-.259 6.634-.643 8.062-.676z" style="fill:#231f20;fill-opacity:1;fill-rule:nonzero;stroke:none;stroke-width:.258257" transform="translate(-303.103 -492.227)"/><path d="M220.893 284.43c-1.959-.047-4.919-.235-5.752-.335-1.112-.134-5.716-.787-6.36-1.089-.642-.3-3.327-1.2-3.682-1.59-.354-.39-1.291-1.594-1.727-2.948-.343-1.065-.92-4.216-.92-4.216s-.123-2.124-.098-3.048c.049-1.743.098-4.794.404-5.266.304-.473.904-1.997 1.254-2.176.349-.178 2.603-.596 3.427-.937.823-.337 6.683-.436 9.007-.385 2.324.048 6.392.236 6.392.236s3.438 4.896 3.922 5.475c.484.583 3.825 6.685 4.195 7.24.37.559 1.374 3.85 1.758 4.602.383.753-.239 2.589-.419 3.013-.18.426-2.87 1.079-3.548 1.125-.678.049-5.085.195-6.344.29-.315.024-.856.025-1.509.01zm-36.461-4.102c-1.071-.025-4.788-.313-6.047-.506-1.26-.194-6.585-.822-8.135-.87-1.55-.051-8.075-.463-8.075-.463s-1.125-3.51-1.125-4.137c0-.632.387-2.52.823-5.036.46-2.654 3.873-8.378 4.233-8.817.36-.438 1.965-1.934 2.511-1.926.546.01 3.86.429 5.652.429 1.791 0 7.311.917 8.522 1.113 1.21.194 4.553 1.211 4.654 1.387.1.178.374 1.753.577 2.97.242 1.454.338 4.31.387 6.247.065 2.663-.437 5.86-.63 6.765-.066.306-1.258 2.337-1.506 2.509-.246.172-.77.36-1.841.335z" style="fill:none;stroke:#231f20;stroke-width:1.4527;stroke-linecap:butt;stroke-linejoin:miter;stroke-miterlimit:4;stroke-dasharray:none;stroke-opacity:1" transform="matrix(1.33333 0 0 -1.33333 -256.488 -49.398)"/><path d="M496.873 9.35c-1.08-.001-2.409.15-4.088.578-4.478 1.144-7.144 4.54-8.693 8.156-1.55 3.616-.387 11.105-.121 12.709.266 1.601 2.832 6.789 2.677 7.584-.155.798-.878 1.658-1.787 2.01-.906.35-5.576 2.005-7.355 2.36-1.78.35-9.684 1.679-9.684 1.679s-4.65.129-6.199.129c-1.55 0-5.682-1.937-9.039-2.582-3.357-.646-10.588-.776-13.688 2.84-4.103 4.788-5.55 10.331-4.459 14.652 1.454 5.767 9.148 13.162 10.659 14.789 1.51 1.624 6.773 9.036 5.965 11.539-1.447 4.47-5.966 5.894-8.678 6.666-2.712.775-9.943 1.68-14.72 1.553-2.979-.083-15.234-.133-20.56 1.933-5.325 2.064-5.783 5.553-4.685 8.479 1.067 2.848 4.458 4.176 8.477 5.69 4.02 1.513 12.248.81 16.638.68 4.39-.128 25.31-2.453 29.184-3.099 3.874-.645 25.955-2.195 27.246-2.324 1.291-.129 3.616 1.554 2.017 4.074-2.218 3.497-7.307 10.616-11.703 14.133-3.874 3.1-8.779 7.748-15.52 10.858-2.122.978-8.497 2.442-10.599 2.453-2.102.01-9.39-.526-11.043-.67-1.653-.142-4.933.531-7.588 2.79-5.348 4.549-3.802 8.072-2.12 11.827.764 1.71 4 5.8 6.841 7.092 2.84 1.291 6.2 2.452 13.043 2.968 9.021.682 19.24-5.681 25.309-10.2 5.72-4.26 10.45-8.85 13.3-11.88 2.066-2.195 5.142-6.256 8.112-10.406 1.702-2.378 3.38-7.414 5.058-11.933 1.227-3.304 5.682-13.559 5.682-13.559s4.65-1.032 7.103-1.678c2.012-.53 10.594-1.09 14.592-1.29 5.165-.259 15.064.233 18.594.644 5.088.594 12.525 2.712 14.85 3.228 2.324.52 9.036 1.945 12.998 1.94 2.884-.003 9.209-2.328 11.267-3.123 2.059-.798 5.576-3.448 7.885-5.4 3.357-2.844 4.52-6.716 5.426-9.038.901-2.324.385-6.073-.258-7.318-.643-1.245-.359-2.718-4.04-3.121-3.71-.41-9.392 2.044-11.585 2.558-2.195.517-11.621 4.264-14.723 4.52-3.096.258-9.552 1.936-10.843 1.035-1.292-.904-4.006-1.421-4.327-2.537-.322-1.118-.97-3.92-.97-5.084 0-1.162.335-3.638 2.326-7.615 1.42-2.841 5.112-7.04 6.344-8.61 1.146-1.461 4.502-5.08 4.572-7.81.07-2.73-.33-6.823-.78-8.031-.454-1.21-2.78-4.862-5.246-6.807-2.466-1.945-4.634-3.348-8.634-4.381-4.003-1.033-13.689.257-16.53.516-2.84.258-15.624 3.615-18.078 3.357-2.453-.258-3.357-.903-3.357-2.71 0-1.809 1.162-7.233 1.193-8.718.031-1.487-.676-5.875-1.562-7.588-.883-1.712-2.73-4.486-4.016-6.136-1.286-1.65-4.784-3.256-6.248-3.682-.915-.265-2.03-.688-3.832-.69zm28.291 47.476c.839-.01 1.625.01 2.318.07 2.774.248 5.69.854 6.137 1.231.447.374 2.047 2.249 2.12 3.344.069 1.097 0 4.716-.225 6.361-.222 1.645-1.58 6.935-1.965 8.227-.388 1.29-2.663 8.257-3.725 9.62-.15.197-8.866-.449-10.287-.449-1.42 0-9.683-.968-9.683-.968v.191s-2.156-3.856-2.342-4.574c-.305-1.173-.694-3.562-.782-5.912-.04-1.14.67-9.526 1.575-11.27.904-1.743 1.813-3.069 2.107-3.234 1.25-.705 5.065-1.97 6.932-2.125 2.324-.194 5.305-.483 7.82-.512zm-45.73 3.504a56.03 56.03 0 0 1 2.638.025c.889.05 4.022.664 4.8 1.116.776.454 3.096 1.871 3.347 2.79.25.918.201 4.956-.057 10.382-.258 5.423-1.84 10.257-1.84 10.257-1 .705-6.102 1.555-7.716 1.748-1.279.155-8.007.907-8.782.907-.775 0-4.905.191-4.924.023-.126-1.278-.693-4.867-.886-7-.194-2.128-.065-6.259.322-10.197.387-3.939 1.228-5.875 1.904-6.565.677-.69 2.488-1.57 3.684-2.01 1.196-.438 3.84-1.24 4.808-1.368.485-.065 1.598-.098 2.702-.108z" style="fill:#231f20;fill-opacity:1;fill-rule:nonzero;stroke:none;stroke-width:.258257" transform="translate(-303.103 -492.227)"/><path d="M348.77 239.746s1.807.951 3.647-.114c1.84-1.065 12.696-5.507 14.676-6.58 1.981-1.071 9.342-1.458 11.085-1.846 1.743-.387 12.75-.34 14.267-1.332 1.519-.992 1.943-2.741 1.842-3.516-.422-3.19-2.523-7.203-4.183-8.199-1.66-.996-5.769-2.572-8.703-2.51-2.933.062-9.288 1.296-10.711 1.84-1.422.546-7.996 2.965-10.375 4.856-2.378 1.888-9.642 7.99-10.997 11.38-1.356 3.389-1.583 4.588-.549 6.021" style="fill:#231f20;fill-opacity:1;fill-rule:nonzero;stroke:none;stroke-width:.193693" transform="matrix(1.33333 0 0 -1.33333 -256.488 -49.398)"/><path d="M358.912 289.503c-1.886-.022-4.122-.239-5.865-.384-1.4-.116-4.261-1.065-5.199-1.594-.22-.124-.902-1.118-1.58-2.426-.678-1.307-1.212-7.598-1.181-8.452.066-1.762.357-3.554.586-4.434.14-.538 1.756-3.43 1.756-3.43v.143s6.198-.726 7.263-.726c1.065 0 7.603-.485 7.715-.337.796 1.022 2.503 6.247 2.794 7.215.288.969 1.307 4.937 1.473 6.17.169 1.234.221 3.948.169 4.771-.054.822-1.254 2.227-1.59 2.508-.335.283-2.522.737-4.602.923-.52.046-1.11.06-1.739.053zm-34.298-2.628c-.827-.008-1.662-.032-2.026-.08-.726-.098-2.71-.698-3.606-1.028-.897-.329-2.255-.99-2.763-1.507-.507-.517-1.137-1.97-1.428-4.923-.29-2.954-.387-6.052-.242-7.648.146-1.6.57-4.291.665-5.25.014-.126 3.112.017 3.693.017s5.627.564 6.586.68c1.21.145 5.038.782 5.788 1.311 0 0 1.186 3.626 1.38 7.693.193 4.07.23 7.098.042 7.786-.188.69-1.928 1.752-2.51 2.093-.584.34-2.933.8-3.6.837-.332.017-1.151.027-1.979.019z" style="fill:none;stroke:#231f20;stroke-width:1.4527;stroke-linecap:butt;stroke-linejoin:miter;stroke-miterlimit:4;stroke-dasharray:none;stroke-opacity:1" transform="matrix(1.33333 0 0 -1.33333 -256.488 -49.398)"/><path d="M734.434 36.256c-.806-.096-3.707.745-6.032 1.39-2.324.646-13.818 3.357-16.013 3.616-2.198.258-10.073.517-10.073.517l-27.632.516s-4.004.774-5.295.516c-1.292-.259-10.458-2.97-11.6-3.094-1.139-.127-5.979-.042-9.576 1.931-4 2.196-8.007 6.974-8.164 12.684-.153 5.71 4.163 16.885 4.8 18.63.639 1.744 4.009 20.08 4.528 22.143.514 2.067 1.938 17.563 2.193 20.016.259 2.454 1.162 9.038-1.033 16.399-2.195 7.36-1.55 10.59 0 15.238s5.552 6.456 10.717 6.972c5.165.517 10.46-4.907 11.752-5.294 1.291-.388 8.263-1.42 10.974-1.678 2.712-.258 11.235-.647 13.172-.647 1.937 0 14.205.002 15.496.26 1.292.258 6.327.645 7.36 2.582 1.033 1.937 4.907 7.877 7.846 9.47 2.938 1.592 8.037.602 9.037-.558 1-1.162 2.873-4.006 3.681-6.248.809-2.244 2.548-11.961 3.194-15.19.645-3.227 1.29-10.718 1.42-13.042.131-2.325.906-9.169.906-12.397 0-3.228.517-14.85.517-18.334 0-3.486.259-15.495.385-18.336.13-2.843.645-12.527.645-15.365 0-2.84-.772-10.075-.82-12.098-.045-2.022-2.407-6.109-3.792-7.808-1.387-1.697-7.782-2.693-8.593-2.791zm-27.467 22.84c3.323.03 8.257.266 9.394.367 1.516.134 5.618 1.082 6.473 1.674.855.591 1.336 2.552 1.447 3.347.114.796.376 4.474.182 6.801-.194 2.324-1.035 7.292-1.484 8.906-.452 1.615-1.538 3.681-1.93 4.262-.395.581-4.078.968-5.754 1.291-1.679.323-10.846 1.033-15.043 1.1-4.197.064-12.784.387-16.012.191-3.228-.191-10.016-.555-11.72-1.02-1.71-.462-3.305-2.775-4.163-5.626-.86-2.851-1.445-6.706-1.533-9.1-.082-2.397.5-5.04.565-5.492.064-.455.605-2.103 1.334-2.764 0 0 6.864-1.564 8.35-1.82 1.484-.258 11.557-1.422 13.3-1.486 1.743-.065 11.815-.387 14.008-.58.55-.049 1.478-.062 2.586-.051zM705.17 101.3c1.514 0 2.796.02 3.603.068 3.229.194 5.554.066 8.33.645 1.878.395 3.124.487 3.499 1.406.374.922 1.343 3.243 1.408 4.728.064 1.485-.198 4.972-.453 6.522-.259 1.55-1.743 7.425-2.84 10.394-.698 1.891-2.093 4.553-2.467 5.02-.374.467-7.996 2.275-14.063 2.34-6.069.064-18.982.259-22.533-.451-3.55-.71-4.832-1.336-5.353-1.442-.522-.108-2.62-4.912-3.04-7.533-.418-2.619-1.16-11.169-.081-14.89.684-2.358 1.67-3.126 1.67-3.126s2.543-1.286 7.14-2.01c2.376-.371 9.156-1.151 11.932-1.345 2.082-.143 8.705-.326 13.248-.326z" style="fill:#231f20;fill-opacity:1;fill-rule:nonzero;stroke:none;stroke-width:.258257" transform="translate(-303.103 -492.227)"/><path d="M495.264 287.8c-.83.009-1.527-.001-1.94-.038-1.644-.145-9.198-.386-10.505-.435-1.308-.048-8.862-.92-9.976-1.114-1.113-.192-6.262-1.366-6.262-1.366-.546-.495-.952-1.731-1-2.072-.049-.34-.486-2.322-.424-4.12.066-1.795.505-4.686 1.15-6.824.643-2.139 1.84-3.874 3.122-4.22 1.278-.349 6.37-.622 8.79-.765 2.421-.147 8.862.095 12.009.144 3.148.05 10.023.582 11.282.824 1.257.242 4.02.533 4.316.968.294.436 1.108 1.986 1.447 3.197.337 1.21.968 4.936 1.113 6.68.146 1.745-.05 4.503-.136 5.1-.083.597-.444 2.067-1.085 2.51-.642.444-3.718 1.155-4.855 1.256-.853.076-4.553.253-7.046.276zm-1.347-31.653c-3.408 0-8.375-.137-9.937-.245-2.082-.145-7.166-.73-8.948-1.01-3.448-.541-5.356-1.506-5.356-1.506s-.739-.576-1.252-2.344c-.81-2.791-.252-9.204.061-11.168.314-1.966 1.888-5.569 2.28-5.65.39-.08 1.351-.548 4.015-1.081 2.663-.533 12.348-.387 16.9-.339 4.55.049 10.266 1.405 10.547 1.755.28.351 1.327 2.347 1.85 3.765.823 2.227 1.936 6.634 2.13 7.796.191 1.162.388 3.777.34 4.891-.05 1.114-.776 2.855-1.057 3.546-.28.69-1.215.759-2.623 1.055-2.083.434-3.827.338-6.248.484-.605.036-1.567.05-2.703.05z" style="fill:none;stroke:#231f20;stroke-width:1.4527;stroke-linecap:butt;stroke-linejoin:miter;stroke-miterlimit:4;stroke-dasharray:none;stroke-opacity:1" transform="matrix(1.33333 0 0 -1.33333 -256.488 -49.398)"/><path d="M661.81 265.57c5.788 5.15 12.686 10.34 13.958 11.077 2.726 1.578 5.86 1.958 6.694 1.925 2.569-.105 5.561-1.588 6.861-2.51.839-.599 1.807-2.001 2.175-5.02.114-.934-1.625-4.39-2.98-5.843-1.355-1.452-4.239-4.35-6.642-5.537-2.317-1.145-8.08-3.76-10.985-4.343-2.834-.566-12.361-1.85-12.361-1.85s15.944-13.643 16.816-14.418c.872-.775 11.186-6.44 13.557-7.67 1.454-.756 11.906-3.537 16.95-3.468 3.533.049 4.554-1.017 5.038-2.324.343-.935.773-2.712-1.273-5.664-1.145-1.656-5.514-5.119-9.673-6.393-3.004-.92-5.863-1.393-7.554-1.163-4.26.582-10.16 2.931-12.69 4.366-3.144 1.784-8.482 7.024-11.715 10.84-2.421 2.856-16.27 20.58-16.27 20.58s-2.273 1.338-3.196 1.646c-1.163.387-3.148 1.598-3.293-6.121-.136-7.254 1.26-27.098 1.162-29.616-.095-2.518.544-9.9-.746-12.892-1.286-2.99-6.612-3.765-8.065-3.765-1.453 0-6.231-.246-6.78 5.81-.34 3.73 3.584 45.615 3.584 45.615s1.259 17.239 1.259 19.273c0 2.032-.68 8.52-1.552 10.554-.87 2.036-3.097 9.3-2.905 11.912.194 2.615 1.84 3.1 2.714 3.1.87 0 3.18-1.219 4.743-3.39 1.563-2.17 4.903-6.917 7.002-7.525a14.002 14.002 0 0 1 5.61-.419c1.431.196 5.508 1.242 8.7 4.35 3.19 3.11 4.244 5.593 4.52 6.778.123.546-.167 2.82-.338 2.929-.56.36-2.345.995-3.798.957-1.842-.049-11.912-.872-14.142-.192-2.227.676-3.976 1.282-5.423 3.484-1.015 1.55-.872 2.809-.872 2.809s-.567 2.824 2.315 4.74c2.043 1.361 3.502 1.559 4.685 1.758 2.83.475 19.536 1.443 19.536 1.443s5.52-.193 7.324-.44c2.003-.274 4.637-1.012 5.799-1.638 1.338-.72 3.34-3.006 3.405-6.477.072-4.035-.159-7.328-1.807-10.037-1.674-2.757-2.276-4.312-7.942-8.525-5.894-4.381-8.427-5.86-11.282-7.312-3.148-1.596-6.923-2.954-10.18-2.91-2.652.034-5.306.142-6.025-.42-1.129-.883-1.567-5.24-1.567-6.403 0-.918 1.017-3.874 1.316-4.474.408-.823 2.307-2.584 3.014-2.929.708-.343 4.935-.837 4.935-.837s4.013 2.689 8.385 6.578" style="fill:#231f20;fill-opacity:1;fill-rule:nonzero;stroke:none;stroke-width:.193693" transform="matrix(1.33333 0 0 -1.33333 -256.488 -49.398)"/><path d="M856.352 10.508c-1.593-.002-3.325.416-4.663 1.65-2.67 2.472-5.057 7.913-5.976 11.219-1.291 4.649-4.51 11.877-4.51 11.877s-5.952.262-9.049.262c-3.099 0-11.364.84-18.724 2.195-14.153 2.608-15.072 6.718-15.739 9.928-.402 1.952 2.567 3.694 5.666 4.466 4.644 1.163 18.658 1.811 22.922 1.811 4.262 0 13.236-.774 14.145.303.948 1.128 3.932 3.894.637 9.185-2.906 4.675-6.842 4.652-10.586 4.782-3.745.129-16.529.128-22.407 1.652-5.878 1.526-6.389 3.383-6.13 5.834.165 1.562 1.807 2.712 4.519 4.781 2.712 2.064 6.974 3.418 14.334 2.84 7.337-.581 8.198 2.26 8.475 2.834.679 1.418 1.402 4.978.336 6.807-1.708 2.923-4.55 2.369-5.973 2.754-1.418.387-9.034.327-10.54 1.484-2.693 2.066-4.888 2.454-2.13 6.209 3.037 4.13 13.835 5.865 16.418 6.898 2.583 1.033 13.826 2.512 13.826 2.512s.313.458.248 1.879c-.222 4.91-3.099 6.456-4.263 7.494-1.16 1.036-8.261 1.995-13.297 2.447-5.274.473-13.689.001-18.164 2.016-1.847.832-5.538 3.905-5.913 8.143-.33 3.724 2.77 6.241 4.237 7.14 1.472.899 5.894 2.2 10.8.393 4.313-1.589 12.267-3.357 14.333-3.873 2.066-.517 11.015-1.426 11.015-1.426s.09 1.296.348 1.941c.258.646 1.482 7.425.322 11.668-1.542 5.617-5.487 10.736-6.47 11.155-1.912.818-9.961 3.644-10.932 4.462-.868.737-2.032 4.03-1.598 6.579.62 3.677 4.516 8.64 9.74 9.488 7.39 1.198 11.976-.695 17.18-4.463 4.672-3.378 6.927-10.582 7.477-13.611.359-1.97 1.068-12.623 1.068-15.205 0-2.583-.258-12.009-.258-12.784 0-.774.387-2.067 1.307-2.023.927.046 4.63.085 8.119.473 3.486.387 6.839-.65 10.201-1.936 2.195-.84 4.52-4.132 5.555-6.121.573-1.095 1.16-3.436 1.119-4.686-.041-1.252-.863-3.14-3.188-4.947-2.326-1.808-6.456-2.132-8.527-1.525-1.994.583-8.583 3.655-9.373 3.459-1.66-.413-3.795-1.418-4.05-3.871-.259-2.454 1.032-4.262 1.546-5.295.52-1.033 1.612-2.334 4.91-4.13 1.42-.777 5.696-.815 10.07-2.003 3.81-1.033 6.327-3.552 6.327-7.297 0-3.745-1.57-4.883-2.737-5.965-1.784-1.653-4.944-1.263-6.494-1.263-1.552 0-3.94-.26-3.882-.745.059-.485-.637-.355.523-4.355 1.165-4.006 2.39-4.78 3.682-6.588 1.29-1.805 7.294-3.743 8.779-4.389 1.942-.847 3.488-2.26 3.488-4.07 0-1.805-.483-4.801-2.715-6.97-2.389-2.325-6.455-2.97-9.683-2.712-3.228.256-8.65 2.454-9.653 2.42-2.293-.075-3.129-1.258-3.232-2.457-.106-1.195.334-2.786 1.137-4.353.8-1.568 5.29-3.358 5.29-3.358s11.494-2.711 13.95-4.263c2.453-1.547 4.323-3.228 4.775-7.487.408-3.86-.334-5.605-2.287-7.537-2.102-2.084-7.784-1.63-9.592-1.502-1.81.13-9.033 1.502-9.033 1.502s.25-9.637-.263-13.77c-.517-4.131-1.424-6.198-2.973-7.091-.776-.447-2.228-.87-3.82-.871zm-6.372 69.49c.35.007.695.027 1.026.066 1.097.127 2.58.598 2.58.598s1.1.82.455 4.049c-.393 1.952-1.226 5.307-2.904 6.883-1.682 1.575-2.569 1.45-2.569 1.45s-2.879-2.157-4.353-3.792c-1.472-1.635-1.924-3.417-2.117-4.463-.194-1.046-.137-2.674 1.226-3.684.452-.33 1.485-.527 1.485-.527s2.72-.631 5.171-.58z" style="fill:#231f20;fill-opacity:1;fill-rule:nonzero;stroke:none;stroke-width:.258257" transform="translate(-303.103 -492.227)"/><path d="M598.645 271.688s2.666.62 4.65.386c.822-.095 1.934-.448 1.934-.448s.825-.616.341-3.037c-.294-1.464-.92-3.98-2.179-5.162-1.261-1.181-1.925-1.088-1.925-1.088s-2.16 1.619-3.266 2.845c-1.104 1.226-1.443 2.562-1.588 3.347-.146.784-.103 2.005.92 2.762.339.248 1.113.395 1.113.395z" style="fill:none;stroke:#231f20;stroke-width:1.4527;stroke-linecap:butt;stroke-linejoin:miter;stroke-miterlimit:4;stroke-dasharray:none;stroke-opacity:1" transform="matrix(1.33333 0 0 -1.33333 -256.488 -49.398)"/></svg>