<svg xmlns="http://www.w3.org/2000/svg" width="600" height="600" viewBox="0 0 600 600"><defs><radialGradient id="c"><stop offset="0" stop-color="#80aaccff"/><stop offset="1" stop-color="#60bbbd00"/></radialGradient><radialGradient id="b"><stop offset="0" stop-color="#60bbbdff"/><stop offset="1" stop-color="#60bbbd00"/></radialGradient><radialGradient id="e"><stop offset="0" stop-color="#0c5d7aff"/><stop offset="1" stop-color="#28769000"/></radialGradient><radialGradient id="f"><stop offset="0" stop-color="#ffffffff"/><stop offset="1" stop-color="#0a589d00"/></radialGradient><radialGradient id="d"><stop offset="0" stop-color="#004090ff"/><stop offset="1" stop-color="#034c9100"/></radialGradient><linearGradient id="g"><stop offset="0.3" stop-color="#ffffffff"/><stop offset="0.7" stop-color="#ffffffa0"/><stop offset="1" stop-color="#ffffff00"/></linearGradient><linearGradient id="h"><stop offset="0.2" stop-color="#ffffffff"/><stop offset="0.6" stop-color="#ffffffc0"/><stop offset="1" stop-color="#ffffff00"/></linearGradient><linearGradient id="i"><stop offset="0.2" stop-color="#ffffffff"/><stop offset="0.6" stop-color="#ffffffc0"/><stop offset="1" stop-color="#ffffff00"/></linearGradient><linearGradient id="j"><stop offset="0.3" stop-color="#ffffffff"/><stop offset="0.7" stop-color="#ffffffc0"/><stop offset="1" stop-color="#ffffff00"/></linearGradient><linearGradient id="a" x1="1" x2="0.5" y1="0" y2="1"><stop offset="0.5" stop-color="#015198"/><stop offset="1" stop-color="#669acd"/></linearGradient></defs><path fill="url(#a)" d="M0 0h600v600H0z"/><ellipse cx="-49.5" cy="391.2" fill="url(#b)" rx="233.8" ry="214.3" transform="matrix(-.3 .9 -.9 -.3 361.9 462.6)"/><ellipse cx="29" cy="9" fill="url(#c)" rx="275" ry="227"/><ellipse cx="564" cy="56" fill="url(#d)" rx="279" ry="267"/><ellipse cx="613.5" cy="313" fill="url(#e)" rx="217.5" ry="235"/><ellipse cx="620" cy="651.4" fill="url(#f)" rx="432" ry="356.7" transform="matrix(.9 0 0 .9 -48.4 64.5)"/><path fill="url(#g)" d="M154.1 253.6c0 17.5-14.2 31.7-31.7 31.7v42.2c40.8 0 74-33.2 74-74v-71.3h-42.2v71.4z"/><path fill="url(#h)" d="M196.4 253.6c0 40.8 33.2 74 74 74v-42.2c-17.5 0-31.7-14.2-31.7-31.7v-29h31.7v-42.2h-31.7v-36l-42.2 36v71.1z"/><path fill="url(#i)" d="M344.2 179.8c-11.4 0-22.1 2.6-31.7 7.1v-40.5h-42.2v107.2c0 40.9 33.1 74 74 74s74-33.1 74-74c-.2-40.7-33.3-73.8-74.1-73.8zm0 105.5c-17.5 0-31.7-14.1-31.7-31.7 0-17.5 14.1-31.7 31.7-31.7s31.7 14.1 31.7 31.7c-.1 17.6-14.2 31.7-31.7 31.7z"/><path fill="url(#j)" d="M476.8 280.7c-5.3 3-10.1 4.6-16.5 4.6-17.5 0-31.7-14.1-31.7-31.7 0-17.5 14.1-31.7 31.7-31.7 6.4 0 11.2 1.6 16.5 4.6v-44.9c-5.4-1.2-10.9-1.8-16.5-1.8-40.9 0-74 33.1-74 74s33.1 74 74 74c5.6 0 11.2-.6 16.5-1.8v-45.3z"/><path fill="#ffffffff" d="M209.4 417.8c-.6-11.3 1.7-21.7 9-30.7 9.8-11.9 27.4-16.2 43.5-10.5 13.9 4.9 23 17.9 23.3 33.4.1 3.2 0 6.4 0 10.1H228c0 11.9 10.4 17.7 19.4 17.7s15.4-2.5 21.8-10l14.3 7.7c-6.2 9.3-16.8 18-35.7 18-26.5-.2-37.5-18.8-38.4-35.7zm57.2-11.9c0-8.1-9.5-15.7-19.1-15.7s-19.1 6.6-19.1 15.7h38.2zm163.4 43c-2.9-1.8-5.5-3.9-8-6.8l11-9.9c1.9 1.4 3.7 2.8 5.6 3.9 4.8 2.7 9.8 3.8 15 1.4 5.6-2.6 6.2-8.3 1.2-12.1-3.3-2.5-7.3-4-11.1-5.5-5.4-2.1-10.5-4.4-14.5-8.7-9.2-9.5-7.9-24.7 2.9-32.4 11.4-8.1 32.1-7.4 42.8 6.4l-10.8 9.2c-3-2-5.5-4.3-8.7-5.5-3.1-1.1-6.3-1.5-9.4-.2-5.6 2.2-6.5 8.3-1.8 12.1 1.8 1.5 4 2.4 6.1 3.3 3.7 1.6 7.3 3.1 11 4.8 7 3.2 15.4 7.7 15.4 21.6 0 11.8-9.5 22.7-28.6 22.7-11 .1-14.5-2-18.1-4.3zm-31.6-73h17.7l-23.2 75.3h-21.6l-16.4-54.8-16.3 54.8h-22.8L292.1 376h19.1l15.9 57.6 17.2-57.9h21l16.7 57.9 16.4-57.7zm-256.7 75.2h-17.3v-75.4h14.8l.6 7.9s6.4-9.2 24.8-9.2c23.2 0 30.8 21.3 30.8 34V451h-18v-43.8c0-10.5-6.6-17.5-17.5-17.5s-18.2 6.9-18.2 17.5v43.9z"/></svg>